<svg width="26" height="16" viewBox="0 0 26 16" fill="none" xmlns="http://www.w3.org/2000/svg">
<path d="M25.8203 7.99996C25.8203 12.4183 22.2453 16 17.8354 16C13.4255 16 9.85052 12.4183 9.85052 7.99996C9.85052 3.5817 13.4255 0 17.8354 0C22.2453 0 25.8203 3.5817 25.8203 7.99996Z" fill="#F79F1A"/>
<path d="M15.9697 7.99996C15.9697 12.4183 12.3948 16 7.98484 16C3.57494 16 0 12.4183 0 7.99996C0 3.5817 3.57494 0 7.98484 0C12.3948 0 15.9697 3.5817 15.9697 7.99996Z" fill="#EA001B"/>
<path d="M12.9103 1.70227C11.0472 3.16679 9.85126 5.44265 9.85126 7.99924C9.85126 10.5557 11.0472 12.8333 12.9103 14.2978C14.7733 12.8333 15.9693 10.5557 15.9693 7.99924C15.9693 5.44265 14.7733 3.16679 12.9103 1.70227Z" fill="#FF5F01"/>
</svg>
