<svg width="56" height="16" viewBox="0 0 56 16" fill="none" xmlns="http://www.w3.org/2000/svg">
<path d="M7.48466 5.54144C7.56199 5.6301 7.66529 5.69216 7.77989 5.7188C7.89449 5.74544 8.01457 5.73531 8.12308 5.68984C8.2292 5.64955 8.31742 5.57267 8.37185 5.47307C8.42627 5.37346 8.44331 5.25768 8.41989 5.14662L7.54066 1.31606C7.53911 1.30759 7.53724 1.29918 7.53506 1.29086C7.21864 0.19881 6.219 0.033601 5.49377 0.00559983H5.47697L0.526357 0C0.271547 0 0.0503373 0.168009 0.00833551 0.400419C-0.0108143 0.516321 0.0130573 0.635225 0.0754574 0.734756C0.137857 0.834286 0.234483 0.90758 0.347149 0.940841C3.36568 1.94328 5.83538 3.53375 7.48746 5.54144H7.48466Z" fill="#303C42"/>
<path d="M51.8889 0.0448529H48.6688C47.3807 0.0448529 46.6415 0.439669 46.1963 1.36931L39.5236 15.3167C39.488 15.3901 39.4728 15.4718 39.4797 15.5531C39.4866 15.6344 39.5153 15.7124 39.5628 15.7787C39.6608 15.9187 39.826 15.9999 40.0052 15.9999H43.7854C43.8892 16.0018 43.9913 15.973 44.079 15.9173C44.1666 15.8615 44.2359 15.7812 44.2782 15.6863C44.7402 14.5551 45.0398 13.8354 45.1378 13.603H47.8652L51.1777 13.6086C51.2869 14.0314 51.5529 15.1543 51.6621 15.6163C51.7153 15.8403 51.9281 15.9999 52.1773 15.9999H55.4731C55.6327 15.9999 55.7811 15.9327 55.8819 15.8179C55.9827 15.7031 56.0219 15.5519 55.9883 15.4091L52.4042 0.425668C52.3734 0.313604 52.3059 0.215124 52.2125 0.146056C52.119 0.076988 52.0051 0.0413455 51.8889 0.0448529V0.0448529ZM46.4959 10.3353L49.002 4.34864L49.3212 5.72629L50.4133 10.3353H46.4931H46.4959Z" fill="#303C42"/>
<path d="M19.0744 0.260394C19.0236 0.191871 18.9572 0.136356 18.8808 0.0983945C18.8044 0.0604328 18.7201 0.0411027 18.6348 0.0419849H14.7986C14.6958 0.039837 14.5946 0.0678646 14.5075 0.122604C14.4204 0.177344 14.3512 0.256397 14.3086 0.349997L9.81999 10.9289L9.33837 9.31878C9.33186 9.29662 9.32343 9.27507 9.31317 9.25438C8.60474 7.73671 6.70066 5.36221 4.04615 3.48053C3.86414 3.35173 3.61493 3.34613 3.42732 3.46373C3.23971 3.58134 3.15571 3.79974 3.22011 4.00135L6.90507 15.6331C6.94205 15.7365 7.01062 15.8257 7.10107 15.888C7.19152 15.9503 7.29928 15.9826 7.40909 15.9803L11.6597 15.9747C11.7596 15.9765 11.8581 15.9502 11.9438 15.8987C12.0294 15.8472 12.0989 15.7726 12.1441 15.6835L19.1164 0.719613C19.1507 0.646059 19.1646 0.564655 19.1567 0.483883C19.1489 0.403112 19.1195 0.325933 19.0716 0.260394H19.0744Z" fill="#303C42"/>
<path d="M25.4363 0.0280196H21.7877C21.6675 0.0238509 21.5496 0.0618886 21.4544 0.135535C21.3593 0.209182 21.293 0.313794 21.2669 0.431237L18.4976 15.4259C18.4724 15.5659 18.5144 15.7115 18.6152 15.8207C18.716 15.9327 18.8616 15.9943 19.0184 15.9943H22.6641C22.9217 15.9943 23.1402 15.8235 23.185 15.5883L25.9571 0.596444C25.9696 0.526022 25.9655 0.453655 25.945 0.385108C25.9246 0.316562 25.8885 0.253733 25.8395 0.201628C25.7879 0.146364 25.7255 0.1024 25.6561 0.0725165C25.5867 0.0426331 25.5118 0.0274805 25.4363 0.0280196V0.0280196Z" fill="#303C42"/>
<path d="M35.5389 3.26208H35.679C37.107 3.26208 38.1151 3.56169 38.7507 3.7857C38.8235 3.81143 38.9008 3.82197 38.9779 3.81667C39.0549 3.81138 39.1301 3.79035 39.1987 3.7549C39.2652 3.72148 39.3232 3.67334 39.3683 3.61415C39.4135 3.55496 39.4445 3.48627 39.4591 3.41329L39.8847 1.10039C39.9295 0.86238 39.7755 0.62997 39.5263 0.557167C38.3433 0.215424 37.1176 0.0438286 35.8862 0.0475444C31.3864 0.0475444 28.2278 2.13643 28.2026 5.12696C28.1746 7.33906 30.4623 8.57391 32.1844 9.31034C33.9541 10.0636 34.5477 10.5452 34.5393 11.22C34.5281 12.2533 33.1224 12.7209 31.8232 12.7209C30.362 12.7605 28.9092 12.4884 27.5614 11.9229C27.488 11.8946 27.4094 11.8821 27.3308 11.8859C27.2522 11.8898 27.1753 11.91 27.105 11.9453C27.0371 11.9783 26.9778 12.0266 26.9317 12.0863C26.8855 12.1461 26.8538 12.2156 26.839 12.2897L26.3882 14.7258C26.3699 14.8423 26.3948 14.9616 26.4582 15.0611C26.5216 15.1606 26.6192 15.2335 26.7326 15.2662C27.9758 15.6694 29.7119 15.9186 31.3808 15.9382H31.3836C36.1578 15.9354 39.2659 13.8689 39.2995 10.674C39.3163 8.91833 38.1039 7.59387 35.4913 6.50182C33.8953 5.78499 32.9152 5.30897 32.9236 4.58094C32.9236 3.92571 33.8197 3.26488 35.5389 3.26488V3.26208Z" fill="#303C42"/>
</svg>
